<svg id="msg" xmlns="http://www.w3.org/2000/svg" viewBox="0 0 411.09 345.46"><defs><style>.cls-1{fill:#aadcec;}.cls-2{fill:none;stroke:#7f00e0;stroke-linecap:round;stroke-miterlimit:10;stroke-width:10px;}</style></defs><title>mesage</title><g id="Capa_2" data-name="Capa 2"><path class="cls-1" d="M455.31,407.47l-78.57-32.25C342.9,399.37,299,413.94,250.92,413.94c-107,0-193.66-72.27-193.66-161.44S144,91.06,250.92,91.06,444.58,163.35,444.58,252.5a138.71,138.71,0,0,1-17.47,67.09v0Z" transform="translate(-45.45 -68.49)"/><path class="cls-2" d="M448.5,389.9l-78.57-32.25c-33.84,24.15-77.78,38.72-125.82,38.72-107,0-193.66-72.27-193.66-161.44S137.15,73.49,244.11,73.49s193.66,72.29,193.66,161.44A138.71,138.71,0,0,1,420.3,302v0Z" transform="translate(-45.45 -68.49)"/></g></svg>