<svg id="msg" xmlns="http://www.w3.org/2000/svg" viewBox="0 0 411.09 345.45"><defs><style>.cls-1{fill:#fac9d1;}.cls-2{fill:none;stroke:#9366cf;stroke-linecap:round;stroke-miterlimit:10;stroke-width:10px;}</style></defs><title>mesage-1</title><path class="cls-1" d="M409.86,339l-78.57-32.25c-33.84,24.15-77.74,38.72-125.82,38.72-107,0-193.66-72.27-193.66-161.44S98.55,22.57,205.47,22.57,399.13,94.86,399.13,184a138.67,138.67,0,0,1-17.47,67.09h0Z" transform="translate(0)"/><path class="cls-2" d="M403.05,321.41l-78.57-32.25c-33.84,24.15-77.78,38.72-125.82,38.72C91.66,327.88,5,255.61,5,166.44S91.7,5,198.66,5,392.32,77.29,392.32,166.44a138.74,138.74,0,0,1-17.47,67.07h0Z" transform="translate(0)"/></svg>