<svg id="msg" xmlns="http://www.w3.org/2000/svg" viewBox="0 0 481.38 484.85"><defs><style>.cls-1,.cls-2,.cls-3{fill:none;stroke:#97deee;stroke-linecap:round;stroke-linejoin:round;stroke-width:3px;}.cls-2{stroke-dasharray:2.04 10.22 2.04 10.22;}.cls-3{stroke-dasharray:2.04 10.22 2.04 10.22 2.04 10.22;}</style></defs><title>puntos-cuadrado</title><g id="Capa_2" data-name="Capa 2"><line class="cls-1" x1="1.5" y1="1.5" x2="2.5" y2="1.5"/><line class="cls-2" x1="12.72" y1="1.5" x2="32.15" y2="1.5"/><line class="cls-3" x1="37.26" y1="1.5" x2="473.77" y2="1.5"/><line class="cls-1" x1="478.88" y1="1.5" x2="479.88" y2="1.5"/><line class="cls-1" x1="1.5" y1="9.4" x2="2.5" y2="9.4"/><line class="cls-2" x1="12.72" y1="9.4" x2="32.15" y2="9.4"/><line class="cls-3" x1="37.26" y1="9.4" x2="473.77" y2="9.4"/><line class="cls-1" x1="478.88" y1="9.4" x2="479.88" y2="9.4"/><line class="cls-1" x1="1.5" y1="17.3" x2="2.5" y2="17.3"/><line class="cls-2" x1="12.72" y1="17.3" x2="32.15" y2="17.3"/><line class="cls-3" x1="37.26" y1="17.3" x2="473.77" y2="17.3"/><line class="cls-1" x1="478.88" y1="17.3" x2="479.88" y2="17.3"/><line class="cls-1" x1="1.5" y1="25.2" x2="2.5" y2="25.2"/><line class="cls-2" x1="12.72" y1="25.2" x2="32.15" y2="25.2"/><line class="cls-3" x1="37.26" y1="25.2" x2="473.77" y2="25.2"/><line class="cls-1" x1="478.88" y1="25.2" x2="479.88" y2="25.2"/><line class="cls-1" x1="1.5" y1="33.1" x2="2.5" y2="33.1"/><line class="cls-2" x1="12.72" y1="33.1" x2="32.15" y2="33.1"/><line class="cls-3" x1="37.26" y1="33.1" x2="473.77" y2="33.1"/><line class="cls-1" x1="478.88" y1="33.1" x2="479.88" y2="33.1"/><line class="cls-1" x1="1.5" y1="41" x2="2.5" y2="41"/><line class="cls-2" x1="12.72" y1="41" x2="32.15" y2="41"/><line class="cls-3" x1="37.26" y1="41" x2="473.77" y2="41"/><line class="cls-1" x1="478.88" y1="41" x2="479.88" y2="41"/><line class="cls-1" x1="1.5" y1="48.89" x2="2.5" y2="48.89"/><line class="cls-2" x1="12.72" y1="48.89" x2="32.15" y2="48.89"/><line class="cls-3" x1="37.26" y1="48.89" x2="473.77" y2="48.89"/><line class="cls-1" x1="478.88" y1="48.89" x2="479.88" y2="48.89"/><line class="cls-1" x1="1.5" y1="56.79" x2="2.5" y2="56.79"/><line class="cls-2" x1="12.72" y1="56.79" x2="32.15" y2="56.79"/><line class="cls-3" x1="37.26" y1="56.79" x2="473.77" y2="56.79"/><line class="cls-1" x1="478.88" y1="56.79" x2="479.88" y2="56.79"/><line class="cls-1" x1="1.5" y1="64.69" x2="2.5" y2="64.69"/><line class="cls-2" x1="12.72" y1="64.69" x2="32.15" y2="64.69"/><line class="cls-3" x1="37.26" y1="64.69" x2="473.77" y2="64.69"/><line class="cls-1" x1="478.88" y1="64.69" x2="479.88" y2="64.69"/><line class="cls-1" x1="1.5" y1="72.59" x2="2.5" y2="72.59"/><line class="cls-2" x1="12.72" y1="72.59" x2="32.15" y2="72.59"/><line class="cls-3" x1="37.26" y1="72.59" x2="473.77" y2="72.59"/><line class="cls-1" x1="478.88" y1="72.59" x2="479.88" y2="72.59"/><line class="cls-1" x1="1.5" y1="80.49" x2="2.5" y2="80.49"/><line class="cls-2" x1="12.72" y1="80.49" x2="32.15" y2="80.49"/><line class="cls-3" x1="37.26" y1="80.49" x2="473.77" y2="80.49"/><line class="cls-1" x1="478.88" y1="80.49" x2="479.88" y2="80.49"/><line class="cls-1" x1="1.5" y1="88.39" x2="2.5" y2="88.39"/><line class="cls-2" x1="12.72" y1="88.39" x2="32.15" y2="88.39"/><line class="cls-3" x1="37.26" y1="88.39" x2="473.77" y2="88.39"/><line class="cls-1" x1="478.88" y1="88.39" x2="479.88" y2="88.39"/><line class="cls-1" x1="1.5" y1="96.29" x2="2.5" y2="96.29"/><line class="cls-2" x1="12.72" y1="96.29" x2="32.15" y2="96.29"/><line class="cls-3" x1="37.26" y1="96.29" x2="473.77" y2="96.29"/><line class="cls-1" x1="478.88" y1="96.29" x2="479.88" y2="96.29"/><line class="cls-1" x1="1.5" y1="104.19" x2="2.5" y2="104.19"/><line class="cls-2" x1="12.72" y1="104.19" x2="32.15" y2="104.19"/><line class="cls-3" x1="37.26" y1="104.19" x2="473.77" y2="104.19"/><line class="cls-1" x1="478.88" y1="104.19" x2="479.88" y2="104.19"/><line class="cls-1" x1="1.5" y1="112.09" x2="2.5" y2="112.09"/><line class="cls-2" x1="12.72" y1="112.09" x2="32.15" y2="112.09"/><line class="cls-3" x1="37.26" y1="112.09" x2="473.77" y2="112.09"/><line class="cls-1" x1="478.88" y1="112.09" x2="479.88" y2="112.09"/><line class="cls-1" x1="1.5" y1="119.99" x2="2.5" y2="119.99"/><line class="cls-2" x1="12.72" y1="119.99" x2="32.15" y2="119.99"/><line class="cls-3" x1="37.26" y1="119.99" x2="473.77" y2="119.99"/><line class="cls-1" x1="478.88" y1="119.99" x2="479.88" y2="119.99"/><line class="cls-1" x1="1.5" y1="127.89" x2="2.5" y2="127.89"/><line class="cls-2" x1="12.72" y1="127.89" x2="32.15" y2="127.89"/><line class="cls-3" x1="37.26" y1="127.89" x2="473.77" y2="127.89"/><line class="cls-1" x1="478.88" y1="127.89" x2="479.88" y2="127.89"/><line class="cls-1" x1="1.5" y1="135.78" x2="2.5" y2="135.78"/><line class="cls-2" x1="12.72" y1="135.78" x2="32.15" y2="135.78"/><line class="cls-3" x1="37.26" y1="135.78" x2="473.77" y2="135.78"/><line class="cls-1" x1="478.88" y1="135.78" x2="479.88" y2="135.78"/><line class="cls-1" x1="1.5" y1="143.68" x2="2.5" y2="143.68"/><line class="cls-2" x1="12.72" y1="143.68" x2="32.15" y2="143.68"/><line class="cls-3" x1="37.26" y1="143.68" x2="473.77" y2="143.68"/><line class="cls-1" x1="478.88" y1="143.68" x2="479.88" y2="143.68"/><line class="cls-1" x1="1.5" y1="151.58" x2="2.5" y2="151.58"/><line class="cls-2" x1="12.72" y1="151.58" x2="32.15" y2="151.58"/><line class="cls-3" x1="37.26" y1="151.58" x2="473.77" y2="151.58"/><line class="cls-1" x1="478.88" y1="151.58" x2="479.88" y2="151.58"/><line class="cls-1" x1="1.5" y1="159.48" x2="2.5" y2="159.48"/><line class="cls-2" x1="12.72" y1="159.48" x2="32.15" y2="159.48"/><line class="cls-3" x1="37.26" y1="159.48" x2="473.77" y2="159.48"/><line class="cls-1" x1="478.88" y1="159.48" x2="479.88" y2="159.48"/><line class="cls-1" x1="1.5" y1="167.38" x2="2.5" y2="167.38"/><line class="cls-2" x1="12.72" y1="167.38" x2="32.15" y2="167.38"/><line class="cls-3" x1="37.26" y1="167.38" x2="473.77" y2="167.38"/><line class="cls-1" x1="478.88" y1="167.38" x2="479.88" y2="167.38"/><line class="cls-1" x1="1.5" y1="175.28" x2="2.5" y2="175.28"/><line class="cls-2" x1="12.72" y1="175.28" x2="32.15" y2="175.28"/><line class="cls-3" x1="37.26" y1="175.28" x2="473.77" y2="175.28"/><line class="cls-1" x1="478.88" y1="175.28" x2="479.88" y2="175.28"/><line class="cls-1" x1="1.5" y1="183.18" x2="2.5" y2="183.18"/><line class="cls-2" x1="12.72" y1="183.18" x2="32.15" y2="183.18"/><line class="cls-3" x1="37.26" y1="183.18" x2="473.77" y2="183.18"/><line class="cls-1" x1="478.88" y1="183.18" x2="479.88" y2="183.18"/><line class="cls-1" x1="1.5" y1="191.08" x2="2.5" y2="191.08"/><line class="cls-2" x1="12.72" y1="191.08" x2="32.15" y2="191.08"/><line class="cls-3" x1="37.26" y1="191.08" x2="473.77" y2="191.08"/><line class="cls-1" x1="478.88" y1="191.08" x2="479.88" y2="191.08"/><line class="cls-1" x1="1.5" y1="198.98" x2="2.5" y2="198.98"/><line class="cls-2" x1="12.72" y1="198.98" x2="32.15" y2="198.98"/><line class="cls-3" x1="37.26" y1="198.98" x2="473.77" y2="198.98"/><line class="cls-1" x1="478.88" y1="198.98" x2="479.88" y2="198.98"/><line class="cls-1" x1="1.5" y1="206.88" x2="2.5" y2="206.88"/><line class="cls-2" x1="12.72" y1="206.88" x2="32.15" y2="206.88"/><line class="cls-3" x1="37.26" y1="206.88" x2="473.77" y2="206.88"/><line class="cls-1" x1="478.88" y1="206.88" x2="479.88" y2="206.88"/><line class="cls-1" x1="1.5" y1="214.78" x2="2.5" y2="214.78"/><line class="cls-2" x1="12.72" y1="214.78" x2="32.15" y2="214.78"/><line class="cls-3" x1="37.26" y1="214.78" x2="473.77" y2="214.78"/><line class="cls-1" x1="478.88" y1="214.78" x2="479.88" y2="214.78"/><line class="cls-1" x1="1.5" y1="222.68" x2="2.5" y2="222.68"/><line class="cls-2" x1="12.72" y1="222.68" x2="32.15" y2="222.68"/><line class="cls-3" x1="37.26" y1="222.68" x2="473.77" y2="222.68"/><line class="cls-1" x1="478.88" y1="222.68" x2="479.88" y2="222.68"/><line class="cls-1" x1="1.5" y1="230.57" x2="2.5" y2="230.57"/><line class="cls-2" x1="12.72" y1="230.57" x2="32.15" y2="230.57"/><line class="cls-3" x1="37.26" y1="230.57" x2="473.77" y2="230.57"/><line class="cls-1" x1="478.88" y1="230.57" x2="479.88" y2="230.57"/><line class="cls-1" x1="1.5" y1="238.47" x2="2.5" y2="238.47"/><line class="cls-2" x1="12.72" y1="238.47" x2="32.15" y2="238.47"/><line class="cls-3" x1="37.26" y1="238.47" x2="473.77" y2="238.47"/><line class="cls-1" x1="478.88" y1="238.47" x2="479.88" y2="238.47"/><line class="cls-1" x1="1.5" y1="246.37" x2="2.5" y2="246.37"/><line class="cls-2" x1="12.72" y1="246.37" x2="32.15" y2="246.37"/><line class="cls-3" x1="37.26" y1="246.37" x2="473.77" y2="246.37"/><line class="cls-1" x1="478.88" y1="246.37" x2="479.88" y2="246.37"/><line class="cls-1" x1="1.5" y1="254.27" x2="2.5" y2="254.27"/><line class="cls-2" x1="12.72" y1="254.27" x2="32.15" y2="254.27"/><line class="cls-3" x1="37.26" y1="254.27" x2="473.77" y2="254.27"/><line class="cls-1" x1="478.88" y1="254.27" x2="479.88" y2="254.27"/><line class="cls-1" x1="1.5" y1="262.17" x2="2.5" y2="262.17"/><line class="cls-2" x1="12.72" y1="262.17" x2="32.15" y2="262.17"/><line class="cls-3" x1="37.26" y1="262.17" x2="473.77" y2="262.17"/><line class="cls-1" x1="478.88" y1="262.17" x2="479.88" y2="262.17"/><line class="cls-1" x1="1.5" y1="270.07" x2="2.5" y2="270.07"/><line class="cls-2" x1="12.72" y1="270.07" x2="32.15" y2="270.07"/><line class="cls-3" x1="37.26" y1="270.07" x2="473.77" y2="270.07"/><line class="cls-1" x1="478.88" y1="270.07" x2="479.88" y2="270.07"/><line class="cls-1" x1="1.5" y1="277.97" x2="2.5" y2="277.97"/><line class="cls-2" x1="12.72" y1="277.97" x2="32.15" y2="277.97"/><line class="cls-3" x1="37.26" y1="277.97" x2="473.77" y2="277.97"/><line class="cls-1" x1="478.88" y1="277.97" x2="479.88" y2="277.97"/><line class="cls-1" x1="1.5" y1="285.87" x2="2.5" y2="285.87"/><line class="cls-2" x1="12.72" y1="285.87" x2="32.15" y2="285.87"/><line class="cls-3" x1="37.26" y1="285.87" x2="473.77" y2="285.87"/><line class="cls-1" x1="478.88" y1="285.87" x2="479.88" y2="285.87"/><line class="cls-1" x1="1.5" y1="293.77" x2="2.5" y2="293.77"/><line class="cls-2" x1="12.72" y1="293.77" x2="32.15" y2="293.77"/><line class="cls-3" x1="37.26" y1="293.77" x2="473.77" y2="293.77"/><line class="cls-1" x1="478.88" y1="293.77" x2="479.88" y2="293.77"/><line class="cls-1" x1="1.5" y1="301.67" x2="2.5" y2="301.67"/><line class="cls-2" x1="12.72" y1="301.67" x2="32.15" y2="301.67"/><line class="cls-3" x1="37.26" y1="301.67" x2="473.77" y2="301.67"/><line class="cls-1" x1="478.88" y1="301.67" x2="479.88" y2="301.67"/><line class="cls-1" x1="1.5" y1="309.57" x2="2.5" y2="309.57"/><line class="cls-2" x1="12.72" y1="309.57" x2="32.15" y2="309.57"/><line class="cls-3" x1="37.26" y1="309.57" x2="473.77" y2="309.57"/><line class="cls-1" x1="478.88" y1="309.57" x2="479.88" y2="309.57"/><line class="cls-1" x1="1.5" y1="317.46" x2="2.5" y2="317.46"/><line class="cls-2" x1="12.72" y1="317.46" x2="32.15" y2="317.46"/><line class="cls-3" x1="37.26" y1="317.46" x2="473.77" y2="317.46"/><line class="cls-1" x1="478.88" y1="317.46" x2="479.88" y2="317.46"/><line class="cls-1" x1="1.5" y1="325.36" x2="2.5" y2="325.36"/><line class="cls-2" x1="12.72" y1="325.36" x2="32.15" y2="325.36"/><line class="cls-3" x1="37.26" y1="325.36" x2="473.77" y2="325.36"/><line class="cls-1" x1="478.88" y1="325.36" x2="479.88" y2="325.36"/><line class="cls-1" x1="1.5" y1="333.26" x2="2.5" y2="333.26"/><line class="cls-2" x1="12.72" y1="333.26" x2="32.15" y2="333.26"/><line class="cls-3" x1="37.26" y1="333.26" x2="473.77" y2="333.26"/><line class="cls-1" x1="478.88" y1="333.26" x2="479.88" y2="333.26"/><line class="cls-1" x1="1.5" y1="341.16" x2="2.5" y2="341.16"/><line class="cls-2" x1="12.72" y1="341.16" x2="32.15" y2="341.16"/><line class="cls-3" x1="37.26" y1="341.16" x2="473.77" y2="341.16"/><line class="cls-1" x1="478.88" y1="341.16" x2="479.88" y2="341.16"/><line class="cls-1" x1="1.5" y1="349.06" x2="2.5" y2="349.06"/><line class="cls-2" x1="12.72" y1="349.06" x2="32.15" y2="349.06"/><line class="cls-3" x1="37.26" y1="349.06" x2="473.77" y2="349.06"/><line class="cls-1" x1="478.88" y1="349.06" x2="479.88" y2="349.06"/><line class="cls-1" x1="1.5" y1="356.96" x2="2.5" y2="356.96"/><line class="cls-2" x1="12.72" y1="356.96" x2="32.15" y2="356.96"/><line class="cls-3" x1="37.26" y1="356.96" x2="473.77" y2="356.96"/><line class="cls-1" x1="478.88" y1="356.96" x2="479.88" y2="356.96"/><line class="cls-1" x1="1.5" y1="364.86" x2="2.5" y2="364.86"/><line class="cls-2" x1="12.72" y1="364.86" x2="32.15" y2="364.86"/><line class="cls-3" x1="37.26" y1="364.86" x2="473.77" y2="364.86"/><line class="cls-1" x1="478.88" y1="364.86" x2="479.88" y2="364.86"/><line class="cls-1" x1="1.5" y1="372.76" x2="2.5" y2="372.76"/><line class="cls-2" x1="12.72" y1="372.76" x2="32.15" y2="372.76"/><line class="cls-3" x1="37.26" y1="372.76" x2="473.77" y2="372.76"/><line class="cls-1" x1="478.88" y1="372.76" x2="479.88" y2="372.76"/><line class="cls-1" x1="1.5" y1="380.66" x2="2.5" y2="380.66"/><line class="cls-2" x1="12.72" y1="380.66" x2="32.15" y2="380.66"/><line class="cls-3" x1="37.26" y1="380.66" x2="473.77" y2="380.66"/><line class="cls-1" x1="478.88" y1="380.66" x2="479.88" y2="380.66"/><line class="cls-1" x1="1.5" y1="388.56" x2="2.5" y2="388.56"/><line class="cls-2" x1="12.72" y1="388.56" x2="32.15" y2="388.56"/><line class="cls-3" x1="37.26" y1="388.56" x2="473.77" y2="388.56"/><line class="cls-1" x1="478.88" y1="388.56" x2="479.88" y2="388.56"/><line class="cls-1" x1="1.5" y1="396.46" x2="2.5" y2="396.46"/><line class="cls-2" x1="12.72" y1="396.46" x2="32.15" y2="396.46"/><line class="cls-3" x1="37.26" y1="396.46" x2="473.77" y2="396.46"/><line class="cls-1" x1="478.88" y1="396.46" x2="479.88" y2="396.46"/><line class="cls-1" x1="1.5" y1="404.35" x2="2.5" y2="404.35"/><line class="cls-2" x1="12.72" y1="404.35" x2="32.15" y2="404.35"/><line class="cls-3" x1="37.26" y1="404.35" x2="473.77" y2="404.35"/><line class="cls-1" x1="478.88" y1="404.35" x2="479.88" y2="404.35"/><line class="cls-1" x1="1.5" y1="412.25" x2="2.5" y2="412.25"/><line class="cls-2" x1="12.72" y1="412.25" x2="32.15" y2="412.25"/><line class="cls-3" x1="37.26" y1="412.25" x2="473.77" y2="412.25"/><line class="cls-1" x1="478.88" y1="412.25" x2="479.88" y2="412.25"/><line class="cls-1" x1="1.5" y1="420.15" x2="2.5" y2="420.15"/><line class="cls-2" x1="12.72" y1="420.15" x2="32.15" y2="420.15"/><line class="cls-3" x1="37.26" y1="420.15" x2="473.77" y2="420.15"/><line class="cls-1" x1="478.88" y1="420.15" x2="479.88" y2="420.15"/><line class="cls-1" x1="1.5" y1="428.05" x2="2.5" y2="428.05"/><line class="cls-2" x1="12.72" y1="428.05" x2="32.15" y2="428.05"/><line class="cls-3" x1="37.26" y1="428.05" x2="473.77" y2="428.05"/><line class="cls-1" x1="478.88" y1="428.05" x2="479.88" y2="428.05"/><line class="cls-1" x1="1.5" y1="435.95" x2="2.5" y2="435.95"/><line class="cls-2" x1="12.72" y1="435.95" x2="32.15" y2="435.95"/><line class="cls-3" x1="37.26" y1="435.95" x2="473.77" y2="435.95"/><line class="cls-1" x1="478.88" y1="435.95" x2="479.88" y2="435.95"/><line class="cls-1" x1="1.5" y1="443.85" x2="2.5" y2="443.85"/><line class="cls-2" x1="12.72" y1="443.85" x2="32.15" y2="443.85"/><line class="cls-3" x1="37.26" y1="443.85" x2="473.77" y2="443.85"/><line class="cls-1" x1="478.88" y1="443.85" x2="479.88" y2="443.85"/><line class="cls-1" x1="1.5" y1="451.75" x2="2.5" y2="451.75"/><line class="cls-2" x1="12.72" y1="451.75" x2="32.15" y2="451.75"/><line class="cls-3" x1="37.26" y1="451.75" x2="473.77" y2="451.75"/><line class="cls-1" x1="478.88" y1="451.75" x2="479.88" y2="451.75"/><line class="cls-1" x1="1.5" y1="459.65" x2="2.5" y2="459.65"/><line class="cls-2" x1="12.72" y1="459.65" x2="32.15" y2="459.65"/><line class="cls-3" x1="37.26" y1="459.65" x2="473.77" y2="459.65"/><line class="cls-1" x1="478.88" y1="459.65" x2="479.88" y2="459.65"/><line class="cls-1" x1="1.5" y1="467.55" x2="2.5" y2="467.55"/><line class="cls-2" x1="12.72" y1="467.55" x2="32.15" y2="467.55"/><line class="cls-3" x1="37.26" y1="467.55" x2="473.77" y2="467.55"/><line class="cls-1" x1="478.88" y1="467.55" x2="479.88" y2="467.55"/><line class="cls-1" x1="1.5" y1="475.45" x2="2.5" y2="475.45"/><line class="cls-2" x1="12.72" y1="475.45" x2="32.15" y2="475.45"/><line class="cls-3" x1="37.26" y1="475.45" x2="473.77" y2="475.45"/><line class="cls-1" x1="478.88" y1="475.45" x2="479.88" y2="475.45"/><line class="cls-1" x1="1.5" y1="483.35" x2="2.5" y2="483.35"/><line class="cls-2" x1="12.72" y1="483.35" x2="32.15" y2="483.35"/><line class="cls-3" x1="37.26" y1="483.35" x2="473.77" y2="483.35"/><line class="cls-1" x1="478.88" y1="483.35" x2="479.88" y2="483.35"/></g></svg>