<svg id="OBJECTS" xmlns="http://www.w3.org/2000/svg" viewBox="0 0 469.42 498.15"><defs><style>.cls-1{fill:#ae65eb;}.cls-2{fill:#3b2643;}.cls-3,.cls-4,.cls-5{fill:none;stroke:#ae65eb;stroke-linecap:round;stroke-linejoin:round;}.cls-3{stroke-width:2.5px;}.cls-4{stroke-width:6px;}.cls-5{stroke-width:2px;}</style></defs><title>yo-1</title><path class="cls-1" d="M208.17,170.51c0,4.62,2.53,8.24,5.77,8.24s5.78-3.62,5.78-8.24-2.54-8.23-5.78-8.23S208.17,165.9,208.17,170.51Z" transform="translate(-14.1 -0.17)"/><path class="cls-1" d="M287.35,170.51c0-4.61-2.54-8.23-5.78-8.23s-5.77,3.62-5.77,8.23,2.53,8.24,5.77,8.24S287.35,175.13,287.35,170.51Z" transform="translate(-14.1 -0.17)"/><path class="cls-1" d="M249.6,238q1.86,0,3.81-.18c16.93-1.6,26.92-8.82,27.34-9.13a1.27,1.27,0,0,0-1.5-2c-.1.07-9.89,7.12-26.08,8.65s-28.39-8-28.51-8.08a1.26,1.26,0,1,0-1.56,2A46.31,46.31,0,0,0,249.6,238Z" transform="translate(-14.1 -0.17)"/><path class="cls-2" d="M234.61,150.27a2.52,2.52,0,0,0-.36-3.55c-.25-.22-25.75-20.6-47.77,3.17a2.53,2.53,0,0,0,.14,3.58,2.53,2.53,0,0,0,3.57-.14c18.77-20.26,40-3.42,40.86-2.7A2.52,2.52,0,0,0,234.61,150.27Z" transform="translate(-14.1 -0.17)"/><path class="cls-2" d="M309.13,153.59a2.53,2.53,0,1,0,3.92-3.2c-8-9.72-16.5-14.52-25.42-14.4-13.44.25-22.43,11.88-22.8,12.38a2.53,2.53,0,1,0,4,3.06c.08-.1,7.85-10.17,18.86-10.38C295,140.92,302.2,145.14,309.13,153.59Z" transform="translate(-14.1 -0.17)"/><path class="cls-1" d="M482.57,474.34a3.52,3.52,0,0,1,.68-.5c.08,0,.18-.08.27-.13-4.09-12.55-8.81-25.85-13.45-38.92-5.79-16.29-11.26-31.68-15.59-45.68-2.58-5.16-5.25-10.5-10.66-13.21q-13.15-7-26.55-13.94c-34.33-18-69.82-36.53-101.88-56.52,0-13.56-.35-24.34-.7-35.74-.23-7.4-.47-15.12-.64-24.11,2.83-6.44,5.65-22.55,7.8-37.35a12.37,12.37,0,0,0,2.58.25,26.92,26.92,0,0,0,10.66-2.66C346,201,352,185.92,349.92,175.61S337.55,161,337.11,160.8a1.26,1.26,0,0,0-1,2.33c.1,0,9.57,4.14,11.31,13,1.84,9.37-3.49,23.09-13.37,27.42-6.26,2.74-10,2.61-11.85,2.19,1.95-13.82,3.27-25.89,3.38-26.94a1.26,1.26,0,0,0-1.12-1.39,1.27,1.27,0,0,0-1.4,1.12c0,.26-1.35,12.41-3.32,26.43a1.21,1.21,0,0,0-.78.45,1.27,1.27,0,0,0,.21,1.78l.23.16c-2.17,15-5,31.47-7.79,37.5-6.06,13.18-20.5,34.69-28.1,40.06-8.76,6.21-21,10.89-24.2,10a1.26,1.26,0,0,0-.7,2.43,5.75,5.75,0,0,0,1.58.19c5.62,0,17.42-5.32,24.79-10.54s20-23.9,26.62-36.44c.16,7,.35,13.24.54,19.27.36,11.57.7,22.51.7,36.36a1.24,1.24,0,0,0,.59,1.07l.68.42a1.55,1.55,0,0,0,0,.21c.38,17.37.26,36.72-.4,60.88a1.26,1.26,0,0,0,1.23,1.3h0a1.26,1.26,0,0,0,1.26-1.23c.64-23.57.77-42.56.43-59.62,31.46,19.44,66,37.53,99.45,55q13.36,7,26.56,13.94c4.68,2.35,7,7.08,9.48,11.9,4.26,13.86,9.74,29.27,15.54,45.59,4.69,13.17,9.44,26.58,13.54,39.21A5.37,5.37,0,0,1,482.57,474.34Z" transform="translate(-14.1 -0.17)"/><path class="cls-1" d="M312.15,486c.43-19.2,1.23-39.53,2.08-60.89.57-14.58,1.17-29.66,1.64-44.49a1.26,1.26,0,0,0-1.22-1.3,1.25,1.25,0,0,0-1.31,1.22c-.47,14.82-1.07,29.89-1.64,44.47-.84,21.12-1.63,41.23-2.06,60.26C310.48,485.48,311.32,485.72,312.15,486Z" transform="translate(-14.1 -0.17)"/><path class="cls-1" d="M162.85,468.61l-15.73-43.44,14.62-16.7a1.3,1.3,0,0,0-.14-1.81L141.81,390,160.36,346a1.27,1.27,0,1,0-2.34-1l-18.91,44.91a1.28,1.28,0,0,0,.35,1.46L159,407.77l-14.26,16.3a1.25,1.25,0,0,0-.23,1.26l15.84,43.77Z" transform="translate(-14.1 -0.17)"/><path class="cls-1" d="M162.16,339.68a1.26,1.26,0,0,0,1.16-.77l4-9.55a1.27,1.27,0,1,0-2.33-1l-4,9.55a1.27,1.27,0,0,0,.67,1.66A1.24,1.24,0,0,0,162.16,339.68Z" transform="translate(-14.1 -0.17)"/><path class="cls-1" d="M345.79,447.38a1.26,1.26,0,0,0-1.62.76l-14.09,38.91a1.27,1.27,0,1,0,2.38.86L346.55,449A1.26,1.26,0,0,0,345.79,447.38Z" transform="translate(-14.1 -0.17)"/><path class="cls-1" d="M334.59,328.37a1.27,1.27,0,0,0-2.33,1L357.79,390,338,406.66a1.3,1.3,0,0,0-.45.88,1.23,1.23,0,0,0,.31.93l14.61,16.7-5.77,15.94a1.26,1.26,0,0,0,.76,1.62,1.31,1.31,0,0,0,.43.08,1.26,1.26,0,0,0,1.19-.84l6-16.64a1.28,1.28,0,0,0-.24-1.26l-14.26-16.3,19.52-16.43a1.28,1.28,0,0,0,.35-1.46Z" transform="translate(-14.1 -0.17)"/><path class="cls-1" d="M422.49,427a1.27,1.27,0,0,0-1.54.91c-5.39,20.94-11.7,49.41-11.1,66.11a1.26,1.26,0,0,0,1.26,1.22h.05a1.26,1.26,0,0,0,1.22-1.31c-.59-16.4,5.67-44.61,11-65.39A1.26,1.26,0,0,0,422.49,427Z" transform="translate(-14.1 -0.17)"/><path class="cls-1" d="M432,393.48a1.25,1.25,0,0,0-1.58.83c0,.08-2.57,8.23-5.81,19.94a1.26,1.26,0,0,0,.88,1.56,1.33,1.33,0,0,0,.34.05,1.28,1.28,0,0,0,1.22-.93c3.23-11.67,5.76-19.79,5.78-19.87A1.26,1.26,0,0,0,432,393.48Z" transform="translate(-14.1 -0.17)"/><path class="cls-1" d="M103.55,472.38C98,441.05,84.41,405.38,84.27,405a1.26,1.26,0,1,0-2.36.91c.14.35,13.6,35.8,19.15,66.9a1.25,1.25,0,0,0,1.24,1l.22,0A1.27,1.27,0,0,0,103.55,472.38Z" transform="translate(-14.1 -0.17)"/><path class="cls-1" d="M155.17,177.9s5.05-3,16.15,11.1" transform="translate(-14.1 -0.17)"/><path class="cls-1" d="M321.74,191.89s9-17.32,18-16.68" transform="translate(-14.1 -0.17)"/><path class="cls-1" d="M240.23,210.81s.86-2.38,2.37-1.08,3,5.4,5.84,5.62,6.48-6.27,7.56-6.27,1.94,1.73,1.94,1.73" transform="translate(-14.1 -0.17)"/><path class="cls-3" d="M15.35,497.08,46.5,400.5s6.58-19,19-25.62l123.58-66.8L194,254.42s28,49.16,55.39,41.54" transform="translate(-14.1 -0.17)"/><line class="cls-3" x1="175.02" y1="307.9" x2="176.06" y2="440.83"/><path class="cls-3" d="M194,254.42l-8.65-12.62-8.66-30.72s-2.59-6.65-3.63-7.85-4.85-25.42-4.85-25.42" transform="translate(-14.1 -0.17)"/><path class="cls-3" d="M173,202.5s-14.25,6.58-25.44-10.5-1-33.58,6.11-33.46l1-.23s3.06-12.23-7.15-27.12,4.84-70.79,18-91.73,86.71-37.9,86.71-37.9,36.17-2.94,54.52,18.69l.34,14.54s62.31,24.06,34.27,92.94c0,0-7.87,17-9.43,35.05,0,0-3.89,5.62-7.7,6.14s-8.14-31.41-8.14-31.41-4.84-26.86-4.27-30.55-.11-13.61-9.8-21.69c0,0-15.58,2.65-19.85-16.15,0,0-23.65,54-83.65,52.61a139.62,139.62,0,0,1-13.39-5.42L172.73,156s-8.31,14.19-4.27,18c0,0-3.11,2.42-5.88-1.38a16,16,0,0,1-5.77-4.85c-2.08-3.12-3.23-7.62-3-8.54" transform="translate(-14.1 -0.17)"/><path class="cls-3" d="M189,318.81S233.31,432.35,255.92,436s53.31-102.46,55.85-104.54" transform="translate(-14.1 -0.17)"/><path class="cls-4" d="M187.85,151.85s20.07-22.62,44.3-3.23" transform="translate(-14.1 -0.17)"/><path class="cls-4" d="M266.77,150.69s20.31-28.84,43.85.93" transform="translate(-14.1 -0.17)"/><path class="cls-5" d="M241.15,327.46s13.39,12.46,22.62.92" transform="translate(-14.1 -0.17)"/></svg>